<mxfile host="app.diagrams.net" modified="2024-01-29T06:02:08.658Z" agent="Mozilla/5.0 (Windows NT 10.0; Win64; x64) AppleWebKit/537.36 (KHTML, like Gecko) Chrome/120.0.0.0 Safari/537.36" etag="8TgzT4CCWRVpLyWlNAkI" version="23.0.2" type="github">
  <diagram name="Page-1" id="m23ScWvjJ2oAPizRGfdk">
    <mxGraphModel dx="756" dy="419" grid="1" gridSize="10" guides="1" tooltips="1" connect="1" arrows="1" fold="1" page="1" pageScale="1" pageWidth="850" pageHeight="1100" math="0" shadow="0">
      <root>
        <mxCell id="0" />
        <mxCell id="1" parent="0" />
        <mxCell id="Jfw64TjHG4_u_Encj8VG-1" value="" style="rounded=0;whiteSpace=wrap;html=1;" vertex="1" parent="1">
          <mxGeometry x="150" y="30" width="640" height="460" as="geometry" />
        </mxCell>
        <mxCell id="Jfw64TjHG4_u_Encj8VG-2" value="Start" style="ellipse;whiteSpace=wrap;html=1;" vertex="1" parent="1">
          <mxGeometry x="190" y="64" width="96" height="46" as="geometry" />
        </mxCell>
        <mxCell id="Jfw64TjHG4_u_Encj8VG-3" value="Isi Buku Kunjungan" style="shape=parallelogram;perimeter=parallelogramPerimeter;whiteSpace=wrap;html=1;fixedSize=1;" vertex="1" parent="1">
          <mxGeometry x="166" y="145" width="140" height="40" as="geometry" />
        </mxCell>
        <mxCell id="Jfw64TjHG4_u_Encj8VG-4" value="Mencari Buku" style="shape=parallelogram;perimeter=parallelogramPerimeter;whiteSpace=wrap;html=1;fixedSize=1;" vertex="1" parent="1">
          <mxGeometry x="547" y="238" width="120" height="40" as="geometry" />
        </mxCell>
        <mxCell id="Jfw64TjHG4_u_Encj8VG-5" value="If" style="rhombus;whiteSpace=wrap;html=1;" vertex="1" parent="1">
          <mxGeometry x="440" y="138" width="60" height="60" as="geometry" />
        </mxCell>
        <mxCell id="Jfw64TjHG4_u_Encj8VG-6" value="Finish" style="ellipse;whiteSpace=wrap;html=1;" vertex="1" parent="1">
          <mxGeometry x="424" y="407" width="80" height="40" as="geometry" />
        </mxCell>
        <mxCell id="Jfw64TjHG4_u_Encj8VG-7" value="" style="endArrow=classic;html=1;rounded=0;" edge="1" parent="1" source="Jfw64TjHG4_u_Encj8VG-2" target="Jfw64TjHG4_u_Encj8VG-3">
          <mxGeometry width="50" height="50" relative="1" as="geometry">
            <mxPoint x="460" y="230" as="sourcePoint" />
            <mxPoint x="510" y="180" as="targetPoint" />
          </mxGeometry>
        </mxCell>
        <mxCell id="Jfw64TjHG4_u_Encj8VG-8" value="" style="endArrow=classic;html=1;rounded=0;" edge="1" parent="1" source="Jfw64TjHG4_u_Encj8VG-3" target="Jfw64TjHG4_u_Encj8VG-11">
          <mxGeometry width="50" height="50" relative="1" as="geometry">
            <mxPoint x="299.3468208092486" y="178.30635838150295" as="sourcePoint" />
            <mxPoint x="383.340909090909" y="177.34090909090912" as="targetPoint" />
          </mxGeometry>
        </mxCell>
        <mxCell id="Jfw64TjHG4_u_Encj8VG-9" value="" style="endArrow=classic;html=1;rounded=0;" edge="1" parent="1" source="Jfw64TjHG4_u_Encj8VG-5" target="Jfw64TjHG4_u_Encj8VG-22">
          <mxGeometry width="50" height="50" relative="1" as="geometry">
            <mxPoint x="460" y="230" as="sourcePoint" />
            <mxPoint x="557" y="168" as="targetPoint" />
          </mxGeometry>
        </mxCell>
        <mxCell id="Jfw64TjHG4_u_Encj8VG-10" value="Berhasil" style="text;html=1;strokeColor=none;fillColor=none;align=center;verticalAlign=middle;whiteSpace=wrap;rounded=0;" vertex="1" parent="1">
          <mxGeometry x="497" y="139" width="64" height="29" as="geometry" />
        </mxCell>
        <mxCell id="Jfw64TjHG4_u_Encj8VG-11" value="Proses" style="rounded=0;whiteSpace=wrap;html=1;" vertex="1" parent="1">
          <mxGeometry x="330" y="148" width="80" height="40" as="geometry" />
        </mxCell>
        <mxCell id="Jfw64TjHG4_u_Encj8VG-12" value="" style="endArrow=classic;html=1;rounded=0;" edge="1" parent="1" source="Jfw64TjHG4_u_Encj8VG-11" target="Jfw64TjHG4_u_Encj8VG-5">
          <mxGeometry width="50" height="50" relative="1" as="geometry">
            <mxPoint x="460" y="230" as="sourcePoint" />
            <mxPoint x="510" y="180" as="targetPoint" />
          </mxGeometry>
        </mxCell>
        <mxCell id="Jfw64TjHG4_u_Encj8VG-13" value="" style="endArrow=classic;html=1;rounded=0;" edge="1" parent="1" source="Jfw64TjHG4_u_Encj8VG-5" target="Jfw64TjHG4_u_Encj8VG-3">
          <mxGeometry width="50" height="50" relative="1" as="geometry">
            <mxPoint x="460" y="230" as="sourcePoint" />
            <mxPoint x="510" y="180" as="targetPoint" />
            <Array as="points">
              <mxPoint x="470" y="250" />
              <mxPoint x="236" y="250" />
            </Array>
          </mxGeometry>
        </mxCell>
        <mxCell id="Jfw64TjHG4_u_Encj8VG-14" value="Gagal" style="text;html=1;strokeColor=none;fillColor=none;align=center;verticalAlign=middle;whiteSpace=wrap;rounded=0;rotation=-90;" vertex="1" parent="1">
          <mxGeometry x="425" y="205" width="60" height="30" as="geometry" />
        </mxCell>
        <mxCell id="Jfw64TjHG4_u_Encj8VG-15" value="" style="endArrow=classic;html=1;rounded=0;" edge="1" parent="1" source="Jfw64TjHG4_u_Encj8VG-22" target="Jfw64TjHG4_u_Encj8VG-4">
          <mxGeometry width="50" height="50" relative="1" as="geometry">
            <mxPoint x="607" y="188" as="sourcePoint" />
            <mxPoint x="520" y="220" as="targetPoint" />
          </mxGeometry>
        </mxCell>
        <mxCell id="Jfw64TjHG4_u_Encj8VG-16" value="Proses" style="rounded=0;whiteSpace=wrap;html=1;" vertex="1" parent="1">
          <mxGeometry x="567" y="322" width="80" height="40" as="geometry" />
        </mxCell>
        <mxCell id="Jfw64TjHG4_u_Encj8VG-17" value="" style="endArrow=classic;html=1;rounded=0;" edge="1" parent="1" source="Jfw64TjHG4_u_Encj8VG-4" target="Jfw64TjHG4_u_Encj8VG-16">
          <mxGeometry width="50" height="50" relative="1" as="geometry">
            <mxPoint x="470" y="270" as="sourcePoint" />
            <mxPoint x="520" y="220" as="targetPoint" />
          </mxGeometry>
        </mxCell>
        <mxCell id="Jfw64TjHG4_u_Encj8VG-18" value="If" style="rhombus;whiteSpace=wrap;html=1;" vertex="1" parent="1">
          <mxGeometry x="577" y="397" width="60" height="60" as="geometry" />
        </mxCell>
        <mxCell id="Jfw64TjHG4_u_Encj8VG-19" value="" style="endArrow=classic;html=1;rounded=0;" edge="1" parent="1" source="Jfw64TjHG4_u_Encj8VG-16" target="Jfw64TjHG4_u_Encj8VG-18">
          <mxGeometry width="50" height="50" relative="1" as="geometry">
            <mxPoint x="470" y="370" as="sourcePoint" />
            <mxPoint x="520" y="320" as="targetPoint" />
          </mxGeometry>
        </mxCell>
        <mxCell id="Jfw64TjHG4_u_Encj8VG-20" value="Tidak Ketemu" style="text;html=1;strokeColor=none;fillColor=none;align=center;verticalAlign=middle;whiteSpace=wrap;rounded=0;" vertex="1" parent="1">
          <mxGeometry x="657" y="403" width="80" height="30" as="geometry" />
        </mxCell>
        <mxCell id="Jfw64TjHG4_u_Encj8VG-21" value="" style="endArrow=classic;html=1;rounded=0;" edge="1" parent="1" source="Jfw64TjHG4_u_Encj8VG-18" target="Jfw64TjHG4_u_Encj8VG-4">
          <mxGeometry width="50" height="50" relative="1" as="geometry">
            <mxPoint x="470" y="370" as="sourcePoint" />
            <mxPoint x="520" y="320" as="targetPoint" />
            <Array as="points">
              <mxPoint x="760" y="427" />
              <mxPoint x="760" y="260" />
            </Array>
          </mxGeometry>
        </mxCell>
        <mxCell id="Jfw64TjHG4_u_Encj8VG-22" value="Keperluan" style="shape=parallelogram;perimeter=parallelogramPerimeter;whiteSpace=wrap;html=1;fixedSize=1;" vertex="1" parent="1">
          <mxGeometry x="557" y="148" width="100" height="40" as="geometry" />
        </mxCell>
        <mxCell id="Jfw64TjHG4_u_Encj8VG-23" value="" style="endArrow=classic;html=1;rounded=0;" edge="1" parent="1" source="Jfw64TjHG4_u_Encj8VG-18" target="Jfw64TjHG4_u_Encj8VG-6">
          <mxGeometry width="50" height="50" relative="1" as="geometry">
            <mxPoint x="470" y="370" as="sourcePoint" />
            <mxPoint x="520" y="320" as="targetPoint" />
          </mxGeometry>
        </mxCell>
        <mxCell id="Jfw64TjHG4_u_Encj8VG-24" value="Ketemu" style="text;html=1;strokeColor=none;fillColor=none;align=center;verticalAlign=middle;whiteSpace=wrap;rounded=0;" vertex="1" parent="1">
          <mxGeometry x="517" y="404" width="60" height="30" as="geometry" />
        </mxCell>
      </root>
    </mxGraphModel>
  </diagram>
</mxfile>
